#!OML:ASF F:\VICON\USERDATA\INSTALL\rory3\rory3.ASF
:FULLY-SPECIFIED
:DEGREES
110
root -0.0575512 17.749 -3.29664 -1.22698 -5.8353 -6.81743
lowerback 9.64866 2.29309 6.77751
upperback 0.0359506 3.90249 1.79225
thorax -5.05368 1.77586 -2.45527
lowerneck -17.227 -3.24709 -0.777426
upperneck 21.077 -4.39028 0.325852
head 9.52968 -2.06655 -0.335729
rclavicle 6.59643e-014 2.92182e-014
rhumerus -21.2462 -12.4333 -81.6521
rradius 34.0642
rwrist -3.6933
rhand -19.7662 22.2013
rfingers 7.12502
rthumb 6.56553 -7.6769
lclavicle 6.59643e-014 2.92182e-014
lhumerus -39.1349 15.2214 76.3269
lradius 16.6376
lwrist -2.37412
lhand -24.6288 21.9953
lfingers 7.12502
lthumb 1.87003 51.9669
rfemur 12.3666 5.82029 33.0852
rtibia 26.341
rfoot -18.4494 -0.444458
rtoes -3.12538
lfemur -26.0142 -1.22754 -13.344
ltibia 20.4438
lfoot -6.47818 0.41175
ltoes -3.63652
111
root -0.0347135 17.7554 -3.07886 -1.25583 -6.01845 -6.37412
lowerback 9.27246 2.3731 6.35946
upperback 0.0933706 3.9236 1.70748
thorax -4.80027 1.80619 -2.29259
lowerneck -17.0997 -3.26456 -0.841012
upperneck 20.9162 -4.41322 0.400618
head 9.45345 -2.07589 -0.298331
rclavicle 1.30204e-014 3.44891e-014
rhumerus -21.3177 -13.1357 -81.4962
rradius 33.3634
rwrist -3.11336
rhand -19.7998 22.1529
rfingers 7.12502
rthumb 6.53305 -7.72633
lclavicle 1.30204e-014 3.44891e-014
lhumerus -39.1616 15.9132 76.0355
lradius 16.4161
lwrist -2.756
lhand -24.5249 21.8404
lfingers 7.12502
lthumb 1.97037 51.811
rfemur 12.5026 6.06383 32.4433
rtibia 27.3566
rfoot -17.477 -0.00346131
rtoes -4.31558
lfemur -25.894 -1.45566 -13.8836
ltibia 21.1506
lfoot -5.81738 -0.167973
ltoes -5.85354
112
root -0.0153285 17.7879 -2.85709 -1.31936 -5.71415 -5.63113
lowerback 9.04592 2.30228 5.62503
upperback -0.0579401 3.73448 1.53841
thorax -4.88105 1.72415 -2.03114
lowerneck -16.9079 -3.28441 -0.806032
upperneck 21.1076 -4.43416 0.308821
head 9.48192 -2.09325 -0.337107
rclavicle 4.0542e-014 -1.10822e-014
rhumerus -21.7696 -13.7086 -81.2587
rradius 32.5922
rwrist -2.58195
rhand -19.5733 22.3401
rfingers 7.12502
rthumb 6.75172 -7.53225
lclavicle 4.0542e-014 -1.10822e-014
lhumerus -39.576 15.9121 76.0312
lradius 16.6317
lwrist -1.96884
lhand -24.6125 23.8719
lfingers 7.12502
lthumb 1.8858 53.8433
rfemur 12.4418 5.75362 31.3866
rtibia 28.5408
rfoot -16.3206 1.00911
rtoes -4.96458
lfemur -25.6696 -1.8898 -14.8199
ltibia 21.731
lfoot -5.60279 -0.591585
ltoes -2.62056
113
root 0.00340368 17.8273 -2.63617 -1.54547 -5.22487 -4.61896
lowerback 9.0536 2.21592 4.67984
upperback -0.178864 3.51175 1.24516
thorax -5.06424 1.62797 -1.78754
lowerneck -17.1141 -3.28037 -0.876493
upperneck 21.7272 -4.4582 0.464435
head 9.74454 -2.08574 -0.2861
rclavicle -3.5096e-014 -1.05977e-014
rhumerus -22.5541 -14.3713 -81.0236
rradius 32.3044
rwrist -2.11241
rhand -18.9592 22.3074
rfingers 7.12502
rthumb 7.34453 -7.54508
lclavicle -3.5096e-014 -1.05977e-014
lhumerus -39.8897 15.9032 75.8761
lradius 16.8256
lwrist -1.2471
lhand -24.0228 26.0963
lfingers 7.12502
lthumb 2.45531 56.0619
rfemur 12.4159 5.29951 30.0269
rtibia 29.9128
rfoot -14.7459 2.50229
rtoes -3.2192
lfemur -25.0587 -1.97865 -16.2395
ltibia 22.1864
lfoot -4.94899 -1.31455
ltoes 0.939547
114
root 0.0172385 17.8586 -2.42545 -1.77916 -4.83569 -4.21727
lowerback 9.11945 2.13847 4.28409
upperback -0.152775 3.36394 1.13567
thorax -5.09819 1.56349 -1.66508
lowerneck -17.3196 -3.27005 -0.949944
upperneck 21.9938 -4.48391 0.690911
head 9.88575 -2.07329 -0.205511
rclavicle 5.33527e-014 6.31141e-015
rhumerus -22.9602 -15.4206 -80.7874
rradius 31.7684
rwrist -1.52126
rhand -18.4407 22.584
rfingers 7.12502
rthumb 7.84499 -7.2504
lclavicle 5.33527e-014 6.31141e-015
lhumerus -39.9389 16.5297 75.4275
lradius 16.7294
lwrist -1.5106
lhand -23.5305 26.4506
lfingers 7.12502
lthumb 2.93081 56.4102
rfemur 12.326 5.03243 29.4335
rtibia 31.3785
rfoot -12.8128 3.50419
rtoes -1.60876
lfemur -24.2839 -1.82455 -17.0055
ltibia 22.4958
lfoot -3.94273 -1.89627
ltoes 0.843906
115
root 0.033185 17.8713 -2.21791 -1.95951 -4.3426 -4.15517
lowerback 9.16191 2.02042 4.25318
upperback -0.188685 3.20743 1.13399
thorax -5.17029 1.48491 -1.63266
lowerneck -17.2187 -3.28927 -1.03256
upperneck 21.9664 -4.53926 0.89542
head 9.86532 -2.08267 -0.126065
rclavicle 2.0052e-014 3.34207e-015
rhumerus -23.3516 -16.6992 -80.3419
rradius 30.8501
rwrist -1.02876
rhand -18.0967 22.8737
rfingers 7.12502
rthumb 8.17699 -6.94805
lclavicle 2.0052e-014 3.34207e-015
lhumerus -40.1139 17.2591 74.8933
lradius 16.3706
lwrist -2.13408
lhand -23.6849 23.6057
lfingers 7.12502
lthumb 2.78171 53.5673
rfemur 12.0804 4.63829 29.1827
rtibia 32.8945
rfoot -10.6 4.20223
rtoes -0.723648
lfemur -23.7441 -1.92916 -17.3196
ltibia 22.8588
lfoot -3.29059 -2.00546
ltoes -0.514129
116
root 0.0537837 17.8887 -2.00252 -2.09632 -3.89267 -3.92673
lowerback 8.98665 1.90858 4.10118
upperback -0.247085 3.03327 1.0946
thorax -5.14804 1.40263 -1.56057
lowerneck -17.0282 -3.32844 -1.14246
upperneck 21.9638 -4.58967 0.993008
head 9.83481 -2.10535 -0.07734
rclavicle 3.57005e-014 2.33572e-014
rhumerus -23.9565 -17.8576 -79.7982
rradius 29.9474
rwrist -0.603926
rhand -17.9628 23.2649
rfingers 7.12502
rthumb 8.30625 -6.55178
lclavicle 3.57005e-014 2.33572e-014
lhumerus -40.3111 17.8469 74.47
lradius 16.0053
lwrist -2.73175
lhand -23.2933 21.2382
lfingers 7.12502
lthumb 3.15982 51.1945
rfemur 11.7153 4.19417 28.6467
rtibia 34.4036
rfoot -7.87371 5.00257
rtoes -0.329964
lfemur -23.2563 -1.87252 -17.8475
ltibia 23.2438
lfoot -2.70394 -1.99366
ltoes -3.40856
117
root 0.072183 17.9271 -1.78149 -2.20379 -3.56981 -3.9921
lowerback 8.74071 1.86189 4.21673
upperback -0.252237 2.97058 1.10244
thorax -5.013 1.37215 -1.5989
lowerneck -17.0546 -3.43138 -1.03002
upperneck 22.1112 -4.76441 0.973654
head 9.8906 -2.17736 -0.128215
rclavicle -4.01813e-014 -3.75206e-015
rhumerus -24.542 -19.2409 -79.2615
rradius 29.1723
rwrist 0.0653276
rhand -17.8883 23.4386
rfingers 7.12502
rthumb 8.37817 -6.37521
lclavicle -4.01813e-014 -3.75206e-015
lhumerus -40.2059 18.5123 73.9979
lradius 15.6115
lwrist -3.79994
lhand -23.0927 23.3617
lfingers 7.12502
lthumb 3.35359 53.3151
rfemur 11.2199 3.81138 28.4008
rtibia 35.9191
rfoot -4.68363 5.76838
rtoes 0.681687
lfemur -22.7342 -1.73482 -18.0283
ltibia 23.7231
lfoot -1.88779 -1.85277
ltoes -5.36205
118
root 0.0938458 17.9636 -1.55659 -2.23301 -3.32766 -4.1753
lowerback 8.59015 1.87014 4.50788
upperback -0.392592 3.00944 1.1232
thorax -5.06011 1.38117 -1.74141
lowerneck -17.0416 -3.50874 -0.850725
upperneck 22.2035 -4.91704 0.9378
head 9.91664 -2.23612 -0.19165
rclavicle 1.79558e-014 1.6934e-014
rhumerus -25.3475 -20.8282 -78.5279
rradius 28.3372
rwrist 1.06813
rhand -17.9695 23.4393
rfingers 7.12502
rthumb 8.29973 -6.37765
lclavicle 1.79558e-014 1.6934e-014
lhumerus -40.2196 17.9693 74.2911
lradius 15.7725
lwrist -3.31762
lhand -23.5379 25.1868
lfingers 7.12502
lthumb 2.92362 55.1465
rfemur 10.5743 3.44036 28.2211
rtibia 37.4668
rfoot -1.43387 6.5686
rtoes 4.61266
lfemur -22.2513 -1.52376 -18.1101
ltibia 24.2589
lfoot -1.44051 -1.93355
ltoes -7.22761
119
root 0.119164 17.9749 -1.3385 -2.29652 -3.42935 -4.3806
lowerback 8.53462 1.88052 4.74691
upperback -0.515689 3.05527 1.23635
thorax -5.14985 1.39486 -1.76299
lowerneck -17.1301 -3.48606 -0.848835
upperneck 22.3871 -4.90323 0.986005
head 10.0001 -2.22117 -0.177069
rclavicle -2.69747e-015 2.73329e-015
rhumerus -26.0864 -22.2636 -77.739
rradius 27.3695
rwrist 2.11017
rhand -17.8451 23.5106
rfingers 7.12502
rthumb 8.41982 -6.3016
lclavicle -2.69747e-015 2.73329e-015
lhumerus -40.4327 17.4442 74.796
lradius 16.2712
lwrist -2.5071
lhand -23.4043 25.715
lfingers 7.12502
lthumb 3.05265 55.6729
rfemur 9.86486 3.28356 28.0021
rtibia 39.1007
rfoot 1.95536 7.40292
rtoes 2.56243
lfemur -21.6898 -0.758122 -18.2099
ltibia 24.7424
lfoot -1.53857 -2.49885
ltoes -9.37301
120
root 0.143766 17.9867 -1.13122 -2.31905 -3.53387 -4.35559
lowerback 8.29441 1.87634 4.74059
upperback -0.521182 3.03801 1.30553
thorax -5.02519 1.3908 -1.67542
lowerneck -17.253 -3.47498 -1.01888
upperneck 22.5032 -4.88336 1.1461
head 10.0741 -2.20519 -0.0939751
rclavicle 3.36018e-014 1.31198e-014
rhumerus -26.8522 -22.9905 -77.1832
rradius 26.9791
rwrist 2.6707
rhand -17.6956 23.2557
rfingers 7.12502
rthumb 8.5641 -6.55065
lclavicle 3.36018e-014 1.31198e-014
lhumerus -40.5677 17.2498 75.0916
lradius 16.6957
lwrist -2.08718
lhand -22.6524 27.4971
lfingers 7.12502
lthumb 3.77875 57.4433
rfemur 8.93921 3.27972 27.5698
rtibia 40.8895
rfoot 5.265 8.27172
rtoes 6.01942
lfemur -21.1711 -0.237636 -18.4562
ltibia 25.0364
lfoot -1.68034 -3.19236
ltoes -7.71223
121
root 0.162637 18.0125 -0.93214 -2.38403 -3.33477 -4.11882
lowerback 8.13278 1.82486 4.47025
upperback -0.490544 2.93066 1.2786
thorax -4.91968 1.34786 -1.53287
lowerneck -17.4337 -3.47679 -0.995151
upperneck 22.4767 -4.92185 1.26595
head 10.1021 -2.2052 -0.0644189
rclavicle -3.1896e-014 -2.6339e-014
rhumerus -27.7511 -23.4281 -76.7719
rradius 27.0247
rwrist 2.88828
rhand -17.4267 22.6457
rfingers 7.12502
rthumb 8.82358 -7.14982
lclavicle -3.1896e-014 -2.6339e-014
lhumerus -40.5796 16.8302 75.431
lradius 17.1124
lwrist -1.16826
lhand -22.7931 26.3595
lfingers 7.12502
lthumb 3.64287 56.3081
rfemur 7.88403 3.22323 27.0555
rtibia 42.8088
rfoot 8.52728 8.80816
rtoes 12.2937
lfemur -20.4941 -0.500007 -18.8345
ltibia 25.0149
lfoot -1.45251 -3.52443
ltoes -2.65975
